<svg width="100" height="100" viewBox="0 0 100 100" fill="none" xmlns="http://www.w3.org/2000/svg">
<circle cx="50" cy="50" r="50" fill="#3056D3"/>
<path fill-rule="evenodd" clip-rule="evenodd" d="M34.406 30.7694C35.1878 30.0096 36.3064 29.8047 37.2826 30.1313L42.1605 31.763H49.6741C51.2016 31.763 52.4613 32.9454 52.5746 34.4624L52.7411 36.6932L61.2131 37.9472C62.0969 38.078 62.8698 38.6085 63.3122 39.383L65.5586 43.3159L71.3608 45.929C72.3965 46.3954 73.1082 47.4495 73.0507 48.6497C72.4639 60.9061 62.4826 70.6888 50.2198 70.6888C37.5782 70.6888 27.3616 60.2928 27.3616 47.5078C27.3616 40.9312 30.064 34.9893 34.406 30.7694ZM36.4919 32.4948C36.3425 32.4448 36.214 32.4876 36.143 32.5567C32.2681 36.3226 29.8539 41.6262 29.8539 47.5078C29.8539 58.9514 38.9894 68.1965 50.2198 68.1965C61.1138 68.1965 70.0362 59.4973 70.5612 48.5305C70.5668 48.4151 70.4975 48.2736 70.3374 48.2015L64.1657 45.4219C63.9256 45.3139 63.726 45.1324 63.5954 44.9038L61.1481 40.6192C61.0833 40.5058 60.972 40.4309 60.8481 40.4127L51.3901 39.0127C50.8137 38.9274 50.3733 38.454 50.3299 37.8727L50.0891 34.6479C50.0723 34.4211 49.8864 34.2553 49.6741 34.2553H41.9577C41.8232 34.2553 41.6897 34.2336 41.5623 34.1909L36.4919 32.4948ZM37.2004 43.3074C37.6883 42.822 38.4773 42.824 38.9627 43.312L39.5471 43.8993C40.0325 44.3872 40.0304 45.1762 39.5425 45.6616C39.0546 46.147 38.2656 46.145 37.7802 45.6571L37.1959 45.0697C36.7105 44.5818 36.7125 43.7928 37.2004 43.3074ZM47.5035 46.0547C47.9914 45.5694 48.7803 45.5714 49.2658 46.0593L49.8501 46.6467C50.3355 47.1346 50.3335 47.9236 49.8456 48.409C49.3576 48.8944 48.5687 48.8923 48.0833 48.4045L47.4989 47.8171C47.0136 47.3292 47.0155 46.5402 47.5035 46.0547ZM58.5429 53.1421C59.0308 52.6567 59.8198 52.6587 60.3052 53.1466L60.8895 53.734C61.3749 54.2219 61.3729 55.0109 60.885 55.4963C60.3971 55.9817 59.6081 55.9797 59.1227 55.4918L58.5383 54.9044C58.0529 54.4165 58.055 53.6275 58.5429 53.1421ZM40.5949 55.075C41.0829 54.5896 41.8718 54.5916 42.3573 55.0796L42.9416 55.6669C43.427 56.1548 43.425 56.9438 42.937 57.4292C42.4491 57.9146 41.6602 57.9126 41.1747 57.4246L40.5904 56.8373C40.105 56.3494 40.107 55.5604 40.5949 55.075Z" fill="white"/>
</svg>
