<svg width="64" height="64" viewBox="0 0 64 64" fill="none" xmlns="http://www.w3.org/2000/svg">
<path fill-rule="evenodd" clip-rule="evenodd" d="M13.5182 9.20833C14.4448 8.30778 15.7706 8.06495 16.9275 8.45197L22.7088 10.3859H31.6138C33.4242 10.3859 34.9171 11.7872 35.0513 13.5852L35.2488 16.2291L45.2896 17.7153C46.3371 17.8704 47.2531 18.499 47.7775 19.417L50.4398 24.0782L57.3166 27.1752C58.5441 27.728 59.3875 28.9773 59.3194 30.3998C58.6239 44.9258 46.7943 56.5202 32.2605 56.5202C17.2779 56.5202 5.16931 44.199 5.16931 29.0463C5.16931 21.2519 8.37217 14.2097 13.5182 9.20833ZM15.9905 11.2533C15.8133 11.194 15.6611 11.2447 15.5769 11.3266C10.9845 15.7899 8.12316 22.0756 8.12316 29.0463C8.12316 42.6091 18.9504 53.5663 32.2605 53.5663C45.1719 53.5663 55.7467 43.2561 56.3689 30.2585C56.3755 30.1217 56.2933 29.954 56.1036 29.8685L48.789 26.5743C48.5044 26.4462 48.2678 26.2311 48.1131 25.9602L45.2126 20.8821C45.1358 20.7477 45.0039 20.659 44.857 20.6373L33.6476 18.9782C32.9644 18.877 32.4424 18.3159 32.391 17.6271L32.1057 13.8051C32.0857 13.5362 31.8653 13.3398 31.6138 13.3398H22.4684C22.309 13.3398 22.1508 13.314 21.9998 13.2634L15.9905 11.2533ZM16.8302 24.0681C17.4084 23.4928 18.3435 23.4953 18.9188 24.0735L19.6114 24.7697C20.1867 25.3479 20.1842 26.283 19.606 26.8583C19.0277 27.4336 18.0926 27.4312 17.5173 26.8529L16.8247 26.1568C16.2495 25.5785 16.2519 24.6434 16.8302 24.0681ZM29.0412 27.3242C29.6194 26.749 30.5545 26.7514 31.1298 27.3297L31.8224 28.0258C32.3977 28.604 32.3952 29.5391 31.817 30.1145C31.2387 30.6898 30.3036 30.6873 29.7283 30.1091L29.0357 29.413C28.4605 28.8347 28.4629 27.8996 29.0412 27.3242ZM42.1249 35.7241C42.7032 35.1488 43.6383 35.1512 44.2136 35.7294L44.9061 36.4255C45.4814 37.0038 45.479 37.939 44.9007 38.5142C44.3225 39.0895 43.3874 39.0872 42.8121 38.5089L42.1195 37.8128C41.5442 37.2345 41.5467 36.2994 42.1249 35.7241ZM20.8533 38.0149C21.4316 37.4396 22.3666 37.4421 22.942 38.0203L23.6345 38.7164C24.2097 39.2947 24.2074 40.2298 23.6291 40.8051C23.0509 41.3804 22.1158 41.378 21.5405 40.7997L20.8479 40.1036C20.2726 39.5253 20.275 38.5902 20.8533 38.0149Z" fill="white"/>
</svg>
