<svg width="46" height="45" viewBox="0 0 46 45" fill="none" xmlns="http://www.w3.org/2000/svg">
<circle cx="1.39737" cy="43.6026" r="1.39737" transform="rotate(-90 1.39737 43.6026)" fill="white" fill-opacity="0.44"/>
<circle cx="1.39737" cy="6.9913" r="1.39737" transform="rotate(-90 1.39737 6.9913)" fill="white" fill-opacity="0.44"/>
<circle cx="13.6947" cy="43.6026" r="1.39737" transform="rotate(-90 13.6947 43.6026)" fill="white" fill-opacity="0.44"/>
<circle cx="13.6947" cy="6.9913" r="1.39737" transform="rotate(-90 13.6947 6.9913)" fill="white" fill-opacity="0.44"/>
<circle cx="25.9911" cy="43.6026" r="1.39737" transform="rotate(-90 25.9911 43.6026)" fill="white" fill-opacity="0.44"/>
<circle cx="25.9911" cy="6.9913" r="1.39737" transform="rotate(-90 25.9911 6.9913)" fill="white" fill-opacity="0.44"/>
<circle cx="38.2885" cy="43.6026" r="1.39737" transform="rotate(-90 38.2885 43.6026)" fill="white" fill-opacity="0.44"/>
<circle cx="38.2885" cy="6.9913" r="1.39737" transform="rotate(-90 38.2885 6.9913)" fill="white" fill-opacity="0.44"/>
<circle cx="1.39737" cy="31.3057" r="1.39737" transform="rotate(-90 1.39737 31.3057)" fill="white" fill-opacity="0.44"/>
<circle cx="13.6947" cy="31.3057" r="1.39737" transform="rotate(-90 13.6947 31.3057)" fill="white" fill-opacity="0.44"/>
<circle cx="25.9911" cy="31.3057" r="1.39737" transform="rotate(-90 25.9911 31.3057)" fill="white" fill-opacity="0.44"/>
<circle cx="38.2885" cy="31.3057" r="1.39737" transform="rotate(-90 38.2885 31.3057)" fill="white" fill-opacity="0.44"/>
<circle cx="1.39737" cy="19.0086" r="1.39737" transform="rotate(-90 1.39737 19.0086)" fill="white" fill-opacity="0.44"/>
<circle cx="13.6947" cy="19.0086" r="1.39737" transform="rotate(-90 13.6947 19.0086)" fill="white" fill-opacity="0.44"/>
<circle cx="25.9911" cy="19.0086" r="1.39737" transform="rotate(-90 25.9911 19.0086)" fill="white" fill-opacity="0.44"/>
<circle cx="38.2885" cy="19.0086" r="1.39737" transform="rotate(-90 38.2885 19.0086)" fill="white" fill-opacity="0.44"/>
</svg>
