<svg width="106" height="134" viewBox="0 0 106 134" fill="none" xmlns="http://www.w3.org/2000/svg">
<circle cx="104" cy="132" r="1.66667" transform="rotate(180 104 132)" fill="#13C296"/>
<circle cx="104" cy="117.333" r="1.66667" transform="rotate(180 104 117.333)" fill="#13C296"/>
<circle cx="104" cy="102.667" r="1.66667" transform="rotate(180 104 102.667)" fill="#13C296"/>
<circle cx="104" cy="88" r="1.66667" transform="rotate(180 104 88)" fill="#13C296"/>
<circle cx="104" cy="73.3333" r="1.66667" transform="rotate(180 104 73.3333)" fill="#13C296"/>
<circle cx="104" cy="45" r="1.66667" transform="rotate(180 104 45)" fill="#13C296"/>
<circle cx="104" cy="16" r="1.66667" transform="rotate(180 104 16)" fill="#13C296"/>
<circle cx="104" cy="59" r="1.66667" transform="rotate(180 104 59)" fill="#13C296"/>
<circle cx="104" cy="30.6666" r="1.66667" transform="rotate(180 104 30.6666)" fill="#13C296"/>
<circle cx="104" cy="1.66659" r="1.66667" transform="rotate(180 104 1.66659)" fill="#13C296"/>
<circle cx="89.3333" cy="132" r="1.66667" transform="rotate(180 89.3333 132)" fill="#13C296"/>
<circle cx="89.3333" cy="117.333" r="1.66667" transform="rotate(180 89.3333 117.333)" fill="#13C296"/>
<circle cx="89.3333" cy="102.667" r="1.66667" transform="rotate(180 89.3333 102.667)" fill="#13C296"/>
<circle cx="89.3333" cy="88" r="1.66667" transform="rotate(180 89.3333 88)" fill="#13C296"/>
<circle cx="89.3336" cy="73.3333" r="1.66667" transform="rotate(180 89.3336 73.3333)" fill="#13C296"/>
<circle cx="89.3336" cy="45" r="1.66667" transform="rotate(180 89.3336 45)" fill="#13C296"/>
<circle cx="89.3336" cy="16" r="1.66667" transform="rotate(180 89.3336 16)" fill="#13C296"/>
<circle cx="89.3336" cy="59" r="1.66667" transform="rotate(180 89.3336 59)" fill="#13C296"/>
<circle cx="89.3336" cy="30.6667" r="1.66667" transform="rotate(180 89.3336 30.6667)" fill="#13C296"/>
<circle cx="89.3336" cy="1.66671" r="1.66667" transform="rotate(180 89.3336 1.66671)" fill="#13C296"/>
<circle cx="74.6668" cy="132" r="1.66667" transform="rotate(180 74.6668 132)" fill="#13C296"/>
<circle cx="31.0001" cy="132" r="1.66667" transform="rotate(180 31.0001 132)" fill="#13C296"/>
<circle cx="74.6668" cy="117.333" r="1.66667" transform="rotate(180 74.6668 117.333)" fill="#13C296"/>
<circle cx="31.0001" cy="117.333" r="1.66667" transform="rotate(180 31.0001 117.333)" fill="#13C296"/>
<circle cx="74.6668" cy="102.667" r="1.66667" transform="rotate(180 74.6668 102.667)" fill="#13C296"/>
<circle cx="31.0001" cy="102.667" r="1.66667" transform="rotate(180 31.0001 102.667)" fill="#13C296"/>
<circle cx="74.6668" cy="88" r="1.66667" transform="rotate(180 74.6668 88)" fill="#13C296"/>
<circle cx="31.0001" cy="88" r="1.66667" transform="rotate(180 31.0001 88)" fill="#13C296"/>
<circle cx="74.6666" cy="73.3333" r="1.66667" transform="rotate(180 74.6666 73.3333)" fill="#13C296"/>
<circle cx="30.9998" cy="73.3333" r="1.66667" transform="rotate(180 30.9998 73.3333)" fill="#13C296"/>
<circle cx="74.6666" cy="45" r="1.66667" transform="rotate(180 74.6666 45)" fill="#13C296"/>
<circle cx="30.9998" cy="45" r="1.66667" transform="rotate(180 30.9998 45)" fill="#13C296"/>
<circle cx="74.6666" cy="16" r="1.66667" transform="rotate(180 74.6666 16)" fill="#13C296"/>
<circle cx="30.9998" cy="16" r="1.66667" transform="rotate(180 30.9998 16)" fill="#13C296"/>
<circle cx="74.6666" cy="59" r="1.66667" transform="rotate(180 74.6666 59)" fill="#13C296"/>
<circle cx="30.9998" cy="59" r="1.66667" transform="rotate(180 30.9998 59)" fill="#13C296"/>
<circle cx="74.6666" cy="30.6667" r="1.66667" transform="rotate(180 74.6666 30.6667)" fill="#13C296"/>
<circle cx="30.9998" cy="30.6667" r="1.66667" transform="rotate(180 30.9998 30.6667)" fill="#13C296"/>
<circle cx="74.6666" cy="1.66671" r="1.66667" transform="rotate(180 74.6666 1.66671)" fill="#13C296"/>
<circle cx="30.9998" cy="1.66671" r="1.66667" transform="rotate(180 30.9998 1.66671)" fill="#13C296"/>
<circle cx="60.0001" cy="132" r="1.66667" transform="rotate(180 60.0001 132)" fill="#13C296"/>
<circle cx="16.3333" cy="132" r="1.66667" transform="rotate(180 16.3333 132)" fill="#13C296"/>
<circle cx="60.0001" cy="117.333" r="1.66667" transform="rotate(180 60.0001 117.333)" fill="#13C296"/>
<circle cx="16.3333" cy="117.333" r="1.66667" transform="rotate(180 16.3333 117.333)" fill="#13C296"/>
<circle cx="60.0001" cy="102.667" r="1.66667" transform="rotate(180 60.0001 102.667)" fill="#13C296"/>
<circle cx="16.3333" cy="102.667" r="1.66667" transform="rotate(180 16.3333 102.667)" fill="#13C296"/>
<circle cx="60.0001" cy="88" r="1.66667" transform="rotate(180 60.0001 88)" fill="#13C296"/>
<circle cx="16.3333" cy="88" r="1.66667" transform="rotate(180 16.3333 88)" fill="#13C296"/>
<circle cx="60.0001" cy="73.3333" r="1.66667" transform="rotate(180 60.0001 73.3333)" fill="#13C296"/>
<circle cx="16.3333" cy="73.3333" r="1.66667" transform="rotate(180 16.3333 73.3333)" fill="#13C296"/>
<circle cx="60.0001" cy="45" r="1.66667" transform="rotate(180 60.0001 45)" fill="#13C296"/>
<circle cx="16.3333" cy="45" r="1.66667" transform="rotate(180 16.3333 45)" fill="#13C296"/>
<circle cx="60.0001" cy="16" r="1.66667" transform="rotate(180 60.0001 16)" fill="#13C296"/>
<circle cx="16.3333" cy="16" r="1.66667" transform="rotate(180 16.3333 16)" fill="#13C296"/>
<circle cx="60.0001" cy="59" r="1.66667" transform="rotate(180 60.0001 59)" fill="#13C296"/>
<circle cx="16.3333" cy="59" r="1.66667" transform="rotate(180 16.3333 59)" fill="#13C296"/>
<circle cx="60.0001" cy="30.6667" r="1.66667" transform="rotate(180 60.0001 30.6667)" fill="#13C296"/>
<circle cx="16.3333" cy="30.6667" r="1.66667" transform="rotate(180 16.3333 30.6667)" fill="#13C296"/>
<circle cx="60.0001" cy="1.66671" r="1.66667" transform="rotate(180 60.0001 1.66671)" fill="#13C296"/>
<circle cx="16.3333" cy="1.66671" r="1.66667" transform="rotate(180 16.3333 1.66671)" fill="#13C296"/>
<circle cx="45.3333" cy="132" r="1.66667" transform="rotate(180 45.3333 132)" fill="#13C296"/>
<circle cx="1.66659" cy="132" r="1.66667" transform="rotate(180 1.66659 132)" fill="#13C296"/>
<circle cx="45.3333" cy="117.333" r="1.66667" transform="rotate(180 45.3333 117.333)" fill="#13C296"/>
<circle cx="1.66659" cy="117.333" r="1.66667" transform="rotate(180 1.66659 117.333)" fill="#13C296"/>
<circle cx="45.3333" cy="102.667" r="1.66667" transform="rotate(180 45.3333 102.667)" fill="#13C296"/>
<circle cx="1.66659" cy="102.667" r="1.66667" transform="rotate(180 1.66659 102.667)" fill="#13C296"/>
<circle cx="45.3333" cy="88" r="1.66667" transform="rotate(180 45.3333 88)" fill="#13C296"/>
<circle cx="1.66659" cy="88" r="1.66667" transform="rotate(180 1.66659 88)" fill="#13C296"/>
<circle cx="45.3336" cy="73.3333" r="1.66667" transform="rotate(180 45.3336 73.3333)" fill="#13C296"/>
<circle cx="1.66683" cy="73.3333" r="1.66667" transform="rotate(180 1.66683 73.3333)" fill="#13C296"/>
<circle cx="45.3336" cy="45" r="1.66667" transform="rotate(180 45.3336 45)" fill="#13C296"/>
<circle cx="1.66683" cy="45" r="1.66667" transform="rotate(180 1.66683 45)" fill="#13C296"/>
<circle cx="45.3336" cy="16" r="1.66667" transform="rotate(180 45.3336 16)" fill="#13C296"/>
<circle cx="1.66683" cy="16" r="1.66667" transform="rotate(180 1.66683 16)" fill="#13C296"/>
<circle cx="45.3336" cy="59" r="1.66667" transform="rotate(180 45.3336 59)" fill="#13C296"/>
<circle cx="1.66683" cy="59" r="1.66667" transform="rotate(180 1.66683 59)" fill="#13C296"/>
<circle cx="45.3336" cy="30.6667" r="1.66667" transform="rotate(180 45.3336 30.6667)" fill="#13C296"/>
<circle cx="1.66683" cy="30.6667" r="1.66667" transform="rotate(180 1.66683 30.6667)" fill="#13C296"/>
<circle cx="45.3336" cy="1.66671" r="1.66667" transform="rotate(180 45.3336 1.66671)" fill="#13C296"/>
<circle cx="1.66683" cy="1.66671" r="1.66667" transform="rotate(180 1.66683 1.66671)" fill="#13C296"/>
</svg>
