<svg width="106" height="134" viewBox="0 0 106 134" fill="none" xmlns="http://www.w3.org/2000/svg">
<circle cx="104" cy="132" r="1.66667" transform="rotate(180 104 132)" fill="#13C296"/>
<circle cx="104" cy="117.333" r="1.66667" transform="rotate(180 104 117.333)" fill="#13C296"/>
<circle cx="104" cy="102.667" r="1.66667" transform="rotate(180 104 102.667)" fill="#13C296"/>
<circle cx="104" cy="88" r="1.66667" transform="rotate(180 104 88)" fill="#13C296"/>
<circle cx="104" cy="73.3333" r="1.66667" transform="rotate(180 104 73.3333)" fill="#13C296"/>
<circle cx="104" cy="45" r="1.66667" transform="rotate(180 104 45)" fill="#13C296"/>
<circle cx="104" cy="16" r="1.66667" transform="rotate(180 104 16)" fill="#13C296"/>
<circle cx="104" cy="59" r="1.66667" transform="rotate(180 104 59)" fill="#13C296"/>
<circle cx="104" cy="30.6666" r="1.66667" transform="rotate(180 104 30.6666)" fill="#13C296"/>
<circle cx="104" cy="1.66659" r="1.66667" transform="rotate(180 104 1.66659)" fill="#13C296"/>
<circle cx="89.3336" cy="132" r="1.66667" transform="rotate(180 89.3336 132)" fill="#13C296"/>
<circle cx="89.3336" cy="117.333" r="1.66667" transform="rotate(180 89.3336 117.333)" fill="#13C296"/>
<circle cx="89.3336" cy="102.667" r="1.66667" transform="rotate(180 89.3336 102.667)" fill="#13C296"/>
<circle cx="89.3336" cy="88" r="1.66667" transform="rotate(180 89.3336 88)" fill="#13C296"/>
<circle cx="89.3338" cy="73.3333" r="1.66667" transform="rotate(180 89.3338 73.3333)" fill="#13C296"/>
<circle cx="89.3338" cy="45" r="1.66667" transform="rotate(180 89.3338 45)" fill="#13C296"/>
<circle cx="89.3338" cy="16" r="1.66667" transform="rotate(180 89.3338 16)" fill="#13C296"/>
<circle cx="89.3338" cy="59" r="1.66667" transform="rotate(180 89.3338 59)" fill="#13C296"/>
<circle cx="89.3338" cy="30.6667" r="1.66667" transform="rotate(180 89.3338 30.6667)" fill="#13C296"/>
<circle cx="89.3338" cy="1.66671" r="1.66667" transform="rotate(180 89.3338 1.66671)" fill="#13C296"/>
<circle cx="74.6671" cy="132" r="1.66667" transform="rotate(180 74.6671 132)" fill="#13C296"/>
<circle cx="31.0003" cy="132" r="1.66667" transform="rotate(180 31.0003 132)" fill="#13C296"/>
<circle cx="74.6671" cy="117.333" r="1.66667" transform="rotate(180 74.6671 117.333)" fill="#13C296"/>
<circle cx="31.0003" cy="117.333" r="1.66667" transform="rotate(180 31.0003 117.333)" fill="#13C296"/>
<circle cx="74.6671" cy="102.667" r="1.66667" transform="rotate(180 74.6671 102.667)" fill="#13C296"/>
<circle cx="31.0003" cy="102.667" r="1.66667" transform="rotate(180 31.0003 102.667)" fill="#13C296"/>
<circle cx="74.6671" cy="88" r="1.66667" transform="rotate(180 74.6671 88)" fill="#13C296"/>
<circle cx="31.0003" cy="88" r="1.66667" transform="rotate(180 31.0003 88)" fill="#13C296"/>
<circle cx="74.6668" cy="73.3333" r="1.66667" transform="rotate(180 74.6668 73.3333)" fill="#13C296"/>
<circle cx="31.0001" cy="73.3333" r="1.66667" transform="rotate(180 31.0001 73.3333)" fill="#13C296"/>
<circle cx="74.6668" cy="45" r="1.66667" transform="rotate(180 74.6668 45)" fill="#13C296"/>
<circle cx="31.0001" cy="45" r="1.66667" transform="rotate(180 31.0001 45)" fill="#13C296"/>
<circle cx="74.6668" cy="16" r="1.66667" transform="rotate(180 74.6668 16)" fill="#13C296"/>
<circle cx="31.0001" cy="16" r="1.66667" transform="rotate(180 31.0001 16)" fill="#13C296"/>
<circle cx="74.6668" cy="59" r="1.66667" transform="rotate(180 74.6668 59)" fill="#13C296"/>
<circle cx="31.0001" cy="59" r="1.66667" transform="rotate(180 31.0001 59)" fill="#13C296"/>
<circle cx="74.6668" cy="30.6667" r="1.66667" transform="rotate(180 74.6668 30.6667)" fill="#13C296"/>
<circle cx="31.0001" cy="30.6667" r="1.66667" transform="rotate(180 31.0001 30.6667)" fill="#13C296"/>
<circle cx="74.6668" cy="1.66671" r="1.66667" transform="rotate(180 74.6668 1.66671)" fill="#13C296"/>
<circle cx="31.0001" cy="1.66671" r="1.66667" transform="rotate(180 31.0001 1.66671)" fill="#13C296"/>
<circle cx="60.0003" cy="132" r="1.66667" transform="rotate(180 60.0003 132)" fill="#13C296"/>
<circle cx="16.3336" cy="132" r="1.66667" transform="rotate(180 16.3336 132)" fill="#13C296"/>
<circle cx="60.0003" cy="117.333" r="1.66667" transform="rotate(180 60.0003 117.333)" fill="#13C296"/>
<circle cx="16.3336" cy="117.333" r="1.66667" transform="rotate(180 16.3336 117.333)" fill="#13C296"/>
<circle cx="60.0003" cy="102.667" r="1.66667" transform="rotate(180 60.0003 102.667)" fill="#13C296"/>
<circle cx="16.3336" cy="102.667" r="1.66667" transform="rotate(180 16.3336 102.667)" fill="#13C296"/>
<circle cx="60.0003" cy="88" r="1.66667" transform="rotate(180 60.0003 88)" fill="#13C296"/>
<circle cx="16.3336" cy="88" r="1.66667" transform="rotate(180 16.3336 88)" fill="#13C296"/>
<circle cx="60.0003" cy="73.3333" r="1.66667" transform="rotate(180 60.0003 73.3333)" fill="#13C296"/>
<circle cx="16.3336" cy="73.3333" r="1.66667" transform="rotate(180 16.3336 73.3333)" fill="#13C296"/>
<circle cx="60.0003" cy="45" r="1.66667" transform="rotate(180 60.0003 45)" fill="#13C296"/>
<circle cx="16.3336" cy="45" r="1.66667" transform="rotate(180 16.3336 45)" fill="#13C296"/>
<circle cx="60.0003" cy="16" r="1.66667" transform="rotate(180 60.0003 16)" fill="#13C296"/>
<circle cx="16.3336" cy="16" r="1.66667" transform="rotate(180 16.3336 16)" fill="#13C296"/>
<circle cx="60.0003" cy="59" r="1.66667" transform="rotate(180 60.0003 59)" fill="#13C296"/>
<circle cx="16.3336" cy="59" r="1.66667" transform="rotate(180 16.3336 59)" fill="#13C296"/>
<circle cx="60.0003" cy="30.6667" r="1.66667" transform="rotate(180 60.0003 30.6667)" fill="#13C296"/>
<circle cx="16.3336" cy="30.6667" r="1.66667" transform="rotate(180 16.3336 30.6667)" fill="#13C296"/>
<circle cx="60.0003" cy="1.66671" r="1.66667" transform="rotate(180 60.0003 1.66671)" fill="#13C296"/>
<circle cx="16.3336" cy="1.66671" r="1.66667" transform="rotate(180 16.3336 1.66671)" fill="#13C296"/>
<circle cx="45.3336" cy="132" r="1.66667" transform="rotate(180 45.3336 132)" fill="#13C296"/>
<circle cx="1.66683" cy="132" r="1.66667" transform="rotate(180 1.66683 132)" fill="#13C296"/>
<circle cx="45.3336" cy="117.333" r="1.66667" transform="rotate(180 45.3336 117.333)" fill="#13C296"/>
<circle cx="1.66683" cy="117.333" r="1.66667" transform="rotate(180 1.66683 117.333)" fill="#13C296"/>
<circle cx="45.3336" cy="102.667" r="1.66667" transform="rotate(180 45.3336 102.667)" fill="#13C296"/>
<circle cx="1.66683" cy="102.667" r="1.66667" transform="rotate(180 1.66683 102.667)" fill="#13C296"/>
<circle cx="45.3336" cy="88" r="1.66667" transform="rotate(180 45.3336 88)" fill="#13C296"/>
<circle cx="1.66683" cy="88" r="1.66667" transform="rotate(180 1.66683 88)" fill="#13C296"/>
<circle cx="45.3338" cy="73.3333" r="1.66667" transform="rotate(180 45.3338 73.3333)" fill="#13C296"/>
<circle cx="1.66707" cy="73.3333" r="1.66667" transform="rotate(180 1.66707 73.3333)" fill="#13C296"/>
<circle cx="45.3338" cy="45" r="1.66667" transform="rotate(180 45.3338 45)" fill="#13C296"/>
<circle cx="1.66707" cy="45" r="1.66667" transform="rotate(180 1.66707 45)" fill="#13C296"/>
<circle cx="45.3338" cy="16" r="1.66667" transform="rotate(180 45.3338 16)" fill="#13C296"/>
<circle cx="1.66707" cy="16" r="1.66667" transform="rotate(180 1.66707 16)" fill="#13C296"/>
<circle cx="45.3338" cy="59" r="1.66667" transform="rotate(180 45.3338 59)" fill="#13C296"/>
<circle cx="1.66707" cy="59" r="1.66667" transform="rotate(180 1.66707 59)" fill="#13C296"/>
<circle cx="45.3338" cy="30.6667" r="1.66667" transform="rotate(180 45.3338 30.6667)" fill="#13C296"/>
<circle cx="1.66707" cy="30.6667" r="1.66667" transform="rotate(180 1.66707 30.6667)" fill="#13C296"/>
<circle cx="45.3338" cy="1.66671" r="1.66667" transform="rotate(180 45.3338 1.66671)" fill="#13C296"/>
<circle cx="1.66707" cy="1.66671" r="1.66667" transform="rotate(180 1.66707 1.66671)" fill="#13C296"/>
</svg>
