<svg width="22" height="30" viewBox="0 0 22 30" fill="none" xmlns="http://www.w3.org/2000/svg">
<circle cx="20.5532" cy="28.6142" r="1.07573" transform="rotate(180 20.5532 28.6142)" fill="#3056D3"/>
<circle cx="20.5532" cy="10.3271" r="1.07573" transform="rotate(180 20.5532 10.3271)" fill="#3056D3"/>
<circle cx="20.5502" cy="19.3632" r="1.07573" transform="rotate(180 20.5502 19.3632)" fill="#3056D3"/>
<circle cx="20.5532" cy="1.07564" r="1.07573" transform="rotate(180 20.5532 1.07564)" fill="#3056D3"/>
<circle cx="10.9191" cy="28.6142" r="1.07573" transform="rotate(180 10.9191 28.6142)" fill="#3056D3"/>
<circle cx="10.9191" cy="10.3271" r="1.07573" transform="rotate(180 10.9191 10.3271)" fill="#3056D3"/>
<circle cx="10.9191" cy="19.3632" r="1.07573" transform="rotate(180 10.9191 19.3632)" fill="#3056D3"/>
<circle cx="10.9191" cy="1.07564" r="1.07573" transform="rotate(180 10.9191 1.07564)" fill="#3056D3"/>
<circle cx="1.28804" cy="28.6142" r="1.07573" transform="rotate(180 1.28804 28.6142)" fill="#3056D3"/>
<circle cx="1.28804" cy="10.3271" r="1.07573" transform="rotate(180 1.28804 10.3271)" fill="#3056D3"/>
<circle cx="1.28804" cy="19.363" r="1.07573" transform="rotate(180 1.28804 19.363)" fill="#3056D3"/>
<circle cx="1.28804" cy="1.07564" r="1.07573" transform="rotate(180 1.28804 1.07564)" fill="#3056D3"/>
</svg>
