<svg width="50" height="79" viewBox="0 0 50 79" fill="none" xmlns="http://www.w3.org/2000/svg">
<circle cx="47.7119" cy="76.9617" r="1.74121" transform="rotate(180 47.7119 76.9617)" fill="white"/>
<circle cx="47.7119" cy="61.6384" r="1.74121" transform="rotate(180 47.7119 61.6384)" fill="white"/>
<circle cx="47.7119" cy="46.3164" r="1.74121" transform="rotate(180 47.7119 46.3164)" fill="white"/>
<circle cx="47.7119" cy="16.7158" r="1.74121" transform="rotate(180 47.7119 16.7158)" fill="white"/>
<circle cx="47.7119" cy="31.342" r="1.74121" transform="rotate(180 47.7119 31.342)" fill="white"/>
<circle cx="47.7119" cy="1.74121" r="1.74121" transform="rotate(180 47.7119 1.74121)" fill="white"/>
<circle cx="32.3896" cy="76.9617" r="1.74121" transform="rotate(180 32.3896 76.9617)" fill="white"/>
<circle cx="32.3896" cy="61.6384" r="1.74121" transform="rotate(180 32.3896 61.6384)" fill="white"/>
<circle cx="32.3896" cy="46.3162" r="1.74121" transform="rotate(180 32.3896 46.3162)" fill="white"/>
<circle cx="32.3896" cy="16.7161" r="1.74121" transform="rotate(180 32.3896 16.7161)" fill="white"/>
<circle cx="32.3896" cy="31.342" r="1.74121" transform="rotate(180 32.3896 31.342)" fill="white"/>
<circle cx="32.3896" cy="1.74145" r="1.74121" transform="rotate(180 32.3896 1.74145)" fill="white"/>
<circle cx="17.0674" cy="76.9617" r="1.74121" transform="rotate(180 17.0674 76.9617)" fill="white"/>
<circle cx="17.0674" cy="61.6384" r="1.74121" transform="rotate(180 17.0674 61.6384)" fill="white"/>
<circle cx="17.0674" cy="46.3162" r="1.74121" transform="rotate(180 17.0674 46.3162)" fill="white"/>
<circle cx="17.0674" cy="16.7161" r="1.74121" transform="rotate(180 17.0674 16.7161)" fill="white"/>
<circle cx="17.0674" cy="31.342" r="1.74121" transform="rotate(180 17.0674 31.342)" fill="white"/>
<circle cx="17.0674" cy="1.74145" r="1.74121" transform="rotate(180 17.0674 1.74145)" fill="white"/>
<circle cx="1.74316" cy="76.9617" r="1.74121" transform="rotate(180 1.74316 76.9617)" fill="white"/>
<circle cx="1.74316" cy="61.6384" r="1.74121" transform="rotate(180 1.74316 61.6384)" fill="white"/>
<circle cx="1.74316" cy="46.3162" r="1.74121" transform="rotate(180 1.74316 46.3162)" fill="white"/>
<circle cx="1.74316" cy="16.7161" r="1.74121" transform="rotate(180 1.74316 16.7161)" fill="white"/>
<circle cx="1.74316" cy="31.342" r="1.74121" transform="rotate(180 1.74316 31.342)" fill="white"/>
<circle cx="1.74316" cy="1.74145" r="1.74121" transform="rotate(180 1.74316 1.74145)" fill="white"/>
</svg>
