<svg width="18" height="8" viewBox="0 0 18 8" fill="none" xmlns="http://www.w3.org/2000/svg">
<path d="M17.6308 2.83745L15.6133 0.19165C15.4379 -0.0342113 15.1163 -0.0664769 14.8824 0.127119C14.6777 0.320714 14.6485 0.675639 14.8239 0.933766L16.7244 3.41824H0.526292C0.233908 3.41824 0 3.67637 0 3.99903C0 4.32169 0.233908 4.57981 0.526292 4.57981H16.7244L14.8239 7.06429C14.6485 7.29015 14.6777 7.64507 14.8824 7.87094C14.9701 7.96773 15.087 8 15.204 8C15.3502 8 15.4964 7.93547 15.5841 7.80641L17.6015 5.1606C18.1278 4.45075 18.1278 3.48277 17.6308 2.83745Z" fill="#EFEFEF"/>
</svg>
